<svg xmlns:dc="http://purl.org/dc/elements/1.1/" xmlns:cc="http://creativecommons.org/ns#" xmlns:rdf="http://www.w3.org/1999/02/22-rdf-syntax-ns#" xmlns:svg="http://www.w3.org/2000/svg" xmlns="http://www.w3.org/2000/svg" xmlns:sodipodi="http://sodipodi.sourceforge.net/DTD/sodipodi-0.dtd" xmlns:inkscape="http://www.inkscape.org/namespaces/inkscape" version="1.1" x="0px" y="0px" viewBox="0 0 128 128" enable-background="new 0 0 128 128" xml:space="preserve"><path style="" d="M 34.800781 27.5 C 28.500781 27.5 23.300781 32.7 23.300781 39 L 23.300781 42.5 L 9.8007812 42.5 C 9.0007812 42.5 8.3007812 43.2 8.3007812 44 C 8.3007812 44.8 9.0007812 45.5 9.8007812 45.5 L 23.300781 45.5 L 23.300781 52.5 L 9.8007812 52.5 C 9.0007812 52.5 8.3007812 53.2 8.3007812 54 C 8.3007812 54.8 9.0007812 55.5 9.8007812 55.5 L 23.300781 55.5 L 23.300781 62.5 L 9.8007812 62.5 C 9.0007812 62.5 8.3007812 63.2 8.3007812 64 C 8.3007812 64.8 9.0007812 65.5 9.8007812 65.5 L 23.300781 65.5 L 23.300781 72.5 L 9.8007812 72.5 C 9.0007812 72.5 8.3007812 73.2 8.3007812 74 C 8.3007812 74.8 9.0007812 75.5 9.8007812 75.5 L 23.300781 75.5 L 23.300781 82.5 L 9.8007812 82.5 C 9.0007812 82.5 8.3007812 83.2 8.3007812 84 C 8.3007812 84.8 9.0007812 85.5 9.8007812 85.5 L 23.300781 85.5 L 23.300781 89 C 23.300781 95.3 28.500781 100.5 34.800781 100.5 L 93.199219 100.5 C 99.499219 100.5 104.69922 95.3 104.69922 89 L 104.69922 85.5 L 104.80078 85.5 L 119.80078 85.5 C 120.60078 85.5 121.30078 84.8 121.30078 84 C 121.30078 83.2 120.60078 82.5 119.80078 82.5 L 104.80078 82.5 L 104.69922 82.5 L 104.69922 75.5 L 104.80078 75.5 L 119.80078 75.5 C 120.60078 75.5 121.30078 74.8 121.30078 74 C 121.30078 73.2 120.60078 72.5 119.80078 72.5 L 104.80078 72.5 L 104.69922 72.5 L 104.69922 65.5 L 104.80078 65.5 L 119.80078 65.5 C 120.60078 65.5 121.30078 64.8 121.30078 64 C 121.30078 63.2 120.60078 62.5 119.80078 62.5 L 104.80078 62.5 L 104.69922 62.5 L 104.69922 55.5 L 104.80078 55.5 L 119.80078 55.5 C 120.60078 55.5 121.30078 54.8 121.30078 54 C 121.30078 53.2 120.60078 52.5 119.80078 52.5 L 104.80078 52.5 L 104.69922 52.5 L 104.69922 45.5 L 104.80078 45.5 L 119.80078 45.5 C 120.60078 45.5 121.30078 44.8 121.30078 44 C 121.30078 43.2 120.60078 42.5 119.80078 42.5 L 104.80078 42.5 L 104.69922 42.5 L 104.69922 39 C 104.69922 32.7 99.499219 27.5 93.199219 27.5 L 34.800781 27.5 z M 34.800781 30.5 L 93.199219 30.5 C 97.899219 30.5 101.69922 34.3 101.69922 39 L 101.69922 89 C 101.69922 93.7 97.899219 97.5 93.199219 97.5 L 34.800781 97.5 C 30.100781 97.5 26.300781 93.7 26.300781 89 L 26.300781 39 C 26.300781 34.3 30.100781 30.5 34.800781 30.5 z M 44.800781 43 C 41.200781 43 38.300781 45.9 38.300781 49.5 C 38.300781 52.6 40.500781 55.100781 43.300781 55.800781 L 43.300781 79 C 43.300781 79.8 44.000781 80.5 44.800781 80.5 L 77.400391 80.5 C 77.900391 83.6 80.600781 86 83.800781 86 C 87.400781 86 90.300781 83.1 90.300781 79.5 C 90.300781 75.9 87.400781 73 83.800781 73 C 80.900781 73 78.499609 74.9 77.599609 77.5 L 46.300781 77.5 L 46.300781 55.800781 C 49.200781 55.100781 51.300781 52.5 51.300781 49.5 C 51.300781 45.9 48.400781 43 44.800781 43 z M 83.800781 43 C 80.200781 43 77.300781 45.9 77.300781 49.5 C 77.300781 50.3 77.399219 50.999219 77.699219 51.699219 L 68.300781 57.800781 C 67.100781 56.700781 65.600781 56 63.800781 56 C 60.200781 56 57.300781 58.9 57.300781 62.5 C 57.300781 66.1 60.200781 69 63.800781 69 C 67.400781 69 70.300781 66.1 70.300781 62.5 C 70.300781 61.7 70.200391 61.000781 69.900391 60.300781 L 79.300781 54.199219 C 80.500781 55.299219 82.000781 56 83.800781 56 C 87.400781 56 90.300781 53.1 90.300781 49.5 C 90.300781 45.9 87.400781 43 83.800781 43 z M 44.800781 46 C 46.700781 46 48.300781 47.6 48.300781 49.5 C 48.300781 51.4 46.700781 53 44.800781 53 C 42.900781 53 41.300781 51.4 41.300781 49.5 C 41.300781 47.6 42.900781 46 44.800781 46 z M 83.800781 46 C 85.700781 46 87.300781 47.6 87.300781 49.5 C 87.300781 51.4 85.800781 53 83.800781 53 C 81.800781 53 80.300781 51.4 80.300781 49.5 C 80.300781 47.6 81.900781 46 83.800781 46 z M 63.800781 59 C 65.700781 59 67.300781 60.6 67.300781 62.5 C 67.300781 64.4 65.800781 66 63.800781 66 C 61.800781 66 60.300781 64.4 60.300781 62.5 C 60.300781 60.6 61.900781 59 63.800781 59 z M 83.800781 76 C 85.700781 76 87.300781 77.6 87.300781 79.5 C 87.300781 81.4 85.800781 83 83.800781 83 C 81.800781 83 80.300781 81.4 80.300781 79.5 C 80.300781 77.6 81.900781 76 83.800781 76 z " fill="#000000" stroke="none"></path></svg>